<?xml version="1.0" encoding="UTF-8"?>
<svg width="178px" height="180px" viewBox="0 0 178 180" version="1.1" xmlns="http://www.w3.org/2000/svg" xmlns:xlink="http://www.w3.org/1999/xlink">
    <!-- Generator: Sketch 64 (93537) - https://sketch.com -->
    <title>Plaid Logo</title>
    <desc>Created with Sketch.</desc>
    <g id="Plaid-Logo" stroke="none" stroke-width="1" fill="none" fill-rule="evenodd">
        <g id="plaid-icon" fill="#111111">
            <path d="M70.5766743,0 L15.4884691,14.4461062 L0.306739852,69.9138458 L19.2943154,89.4331515 L0,108.630169 L14.288018,164.340573 L69.1376479,179.685295 L88.4357501,160.484486 L107.423326,180 L162.511531,165.553894 L177.689473,110.082363 L158.705685,90.5706402 L178,71.3736229 L163.711982,15.6594275 L108.854778,0.314705201 L89.5642499,19.5117225 L70.5766743,0 Z M36.7709131,25.11575 L65.7900179,17.5021591 L78.4799592,30.5453626 L59.9733214,48.9575127 L36.7709131,25.11575 Z M100.474343,30.7197776 L113.368777,17.8926969 L142.262914,25.9764498 L118.681814,49.4352579 L100.474343,30.7197776 Z M17.6924517,65.3600994 L25.6866224,36.1455986 L48.8814569,59.9873612 L30.3786061,78.3995113 L17.6924517,65.3600994 Z M129.584333,60.6471047 L153.165433,37.1807132 L160.686239,66.5279211 L147.795592,79.3587934 L129.584333,60.6471047 Z M70.8796273,60.1655678 L89.386265,41.7534177 L107.58995,60.4688981 L89.087099,78.8810482 L70.8796273,60.1655678 Z M41.2886988,89.6075664 L59.7915497,71.1954163 L78.0065952,89.9108967 L59.4961705,108.323047 L41.2886988,89.6075664 Z M99.9971917,90.0891033 L118.500043,71.6769532 L136.707514,90.3924336 L118.200877,108.804584 L99.9971917,90.0891033 Z M17.3061867,113.472079 L30.2044081,100.637415 L48.4080929,119.356687 L24.8345673,142.811703 L17.3061867,113.472079 Z M70.4024764,119.531102 L88.9091141,101.118952 L107.116586,119.834432 L88.613735,138.246582 L70.4024764,119.531102 Z M129.107182,120.01643 L147.61382,101.60428 L160.303761,114.643692 L152.313378,143.858193 L129.107182,120.01643 Z M35.7370862,154.027342 L59.3143988,130.56095 L77.5294443,149.276431 L64.6312229,162.111095 L35.7370862,154.027342 Z M99.5200408,149.454637 L118.022892,131.042487 L141.221513,154.888042 L112.206195,162.497841 L99.5200408,149.454637 Z" id="Shape"></path>
        </g>
    </g>
</svg>
